<svg width="150" height="125" viewBox="0 0 150 125" fill="none" xmlns="http://www.w3.org/2000/svg">
<path d="M104.383 19.7473L104.798 0L87.783 10.2305L91.0515 12.1043L87.7045 17.8606L87.7025 17.8571L69.7833 48.6756L76.4943 60.2175L87.7045 40.9375L87.7048 40.9381L94.4138 29.3996L94.4135 29.3991L101.115 17.8735L104.383 19.7473Z" fill="url(#paint0_linear_709_532)"/>
<path d="M97.7683 35.1689L91.0593 46.7073L129.873 113.462H45.5319L47.299 110.422L47.3021 110.424L63.0764 83.2944L56.3654 71.7525L25.405 125H150L97.7683 35.1689Z" fill="url(#paint1_linear_709_532)"/>
<path d="M93.9254 101.923L53.6717 32.6923L0 125H66.9548L13.4112 125L20.1614 113.462H20.1269L53.6717 55.7692L80.5075 101.923H93.9254Z" fill="url(#paint2_linear_709_532)"/>
<defs>
<linearGradient id="paint0_linear_709_532" x1="44.2109" y1="51.2553" x2="44.2109" y2="165.821" gradientUnits="userSpaceOnUse">
<stop stop-color="#FEFEFF"/>
<stop offset="1" stop-color="#181533"/>
</linearGradient>
<linearGradient id="paint1_linear_709_532" x1="44.2109" y1="51.2553" x2="44.2109" y2="165.821" gradientUnits="userSpaceOnUse">
<stop stop-color="#FEFEFF"/>
<stop offset="1" stop-color="#181533"/>
</linearGradient>
<linearGradient id="paint2_linear_709_532" x1="44.2109" y1="51.2553" x2="44.2109" y2="165.821" gradientUnits="userSpaceOnUse">
<stop stop-color="#FEFEFF"/>
<stop offset="1" stop-color="#181533"/>
</linearGradient>
</defs>
</svg>
