<svg width="126" height="105" viewBox="0 0 126 105" fill="none" xmlns="http://www.w3.org/2000/svg">
<path d="M87.682 16.5877L88.0306 0L73.7377 8.59364L76.4832 10.1676L73.6718 15.0029L73.6701 15L58.618 40.8875L64.2552 50.5827L73.6718 34.3875L73.6721 34.388L79.3076 24.6957L79.3073 24.6952L84.9365 15.0138L87.682 16.5877Z" fill="url(#paint0_linear_709_532)"/>
<path d="M82.1254 29.5418L76.4898 39.2342L109.093 95.3077H38.2468L39.7312 92.7547L39.7337 92.7562L52.9842 69.9673L47.3469 60.2721L21.3402 105H126L82.1254 29.5418Z" fill="url(#paint1_linear_709_532)"/>
<path d="M78.8974 85.6154L45.0842 27.4615L0 105H56.2421L11.2654 105L16.9356 95.3077H16.9066L45.0842 46.8462L67.6263 85.6154H78.8974Z" fill="url(#paint2_linear_709_532)"/>
<defs>
<linearGradient id="paint0_linear_709_532" x1="37.1371" y1="43.0544" x2="37.1371" y2="139.289" gradientUnits="userSpaceOnUse">
<stop stop-color="#FEFEFF"/>
<stop offset="1" stop-color="#181533"/>
</linearGradient>
<linearGradient id="paint1_linear_709_532" x1="37.1371" y1="43.0544" x2="37.1371" y2="139.289" gradientUnits="userSpaceOnUse">
<stop stop-color="#FEFEFF"/>
<stop offset="1" stop-color="#181533"/>
</linearGradient>
<linearGradient id="paint2_linear_709_532" x1="37.1371" y1="43.0544" x2="37.1371" y2="139.289" gradientUnits="userSpaceOnUse">
<stop stop-color="#FEFEFF"/>
<stop offset="1" stop-color="#181533"/>
</linearGradient>
</defs>
</svg>
