<svg width="220" height="72" viewBox="0 0 220 72" fill="none" xmlns="http://www.w3.org/2000/svg">
<rect width="220" height="72" fill="#050B25"/>
<path fill-rule="evenodd" clip-rule="evenodd" d="M28.6425 6H29.1082C29.4033 6 29.6425 6.33131 29.6425 6.73999V7V33.627L38.3466 36.7802C38.6064 36.8743 38.8038 37.0652 38.9123 37.2979C39.1256 37.4813 39.2607 37.7531 39.2607 38.0564V57.8961C39.2607 58.4484 38.813 58.8961 38.2607 58.8961H35.452C34.8997 58.8961 34.452 58.4484 34.452 57.8961V40.6179L25.5018 37.4436C25.1537 37.3201 24.9064 37.0172 24.8488 36.6609L24.8339 36.6559V45.2716H29.6425V65.3095V65.5696C29.6425 65.9782 29.4033 66.3095 29.1082 66.3095H28.6425H25.8338H25.3681C25.073 66.3095 24.8338 65.9782 24.8338 65.5696V65.3095V7V6.73999C24.8338 6.33131 25.073 6 25.3681 6H25.8338H28.6425ZM19.4909 13.4136H19.0253H16.2165H15.7508C15.4557 13.4136 15.2165 13.6634 15.2165 13.9716V14.4136V35.4788L10.408 35.8586V20.8252V20.2235C10.408 20.0035 10.1887 19.8252 9.91823 19.8252H9.40801H7H6.48978C6.21928 19.8252 6 20.0035 6 20.2235V20.8252V51.2842V51.8859C6 52.1059 6.21928 52.2842 6.48978 52.2842H7H9.40801H9.91823C10.1887 52.2842 10.408 52.1059 10.408 51.8859V51.2842V36.6069L15.2165 36.2271V57.8962V58.3381C15.2165 58.6463 15.4557 58.8962 15.7508 58.8962H16.2165H19.0253H19.4909C19.786 58.8962 20.0253 58.6463 20.0253 58.3381V57.8962V14.4136V13.9716C20.0253 13.6634 19.786 13.4136 19.4909 13.4136ZM35.452 17.6211C34.8997 17.6211 34.452 18.0688 34.452 18.6211V31.6484C34.452 32.2006 34.8997 32.6484 35.452 32.6484H38.2607C38.813 32.6484 39.2607 32.2006 39.2607 31.6484V18.4227L44.0692 20.3118V51.2842C44.0692 51.8365 44.5169 52.2842 45.0692 52.2842H47.878C48.4303 52.2842 48.878 51.8365 48.878 51.2842V20.8252C48.878 20.2729 48.4303 19.8252 47.878 19.8252H44.8703V19.8251L39.2607 17.6213V17.6211H39.2602H35.452Z" fill="#FAF9FD"/>
<path d="M65.992 44V28.304H68.776V34.616H75.136V28.304H77.92V44H75.136V37.04H68.776V44H65.992ZM87.4501 44.288C86.3941 44.288 85.3701 44.088 84.3781 43.688C83.4021 43.288 82.5381 42.72 81.7861 41.984L83.4181 40.088C83.9781 40.616 84.6181 41.048 85.3381 41.384C86.0581 41.704 86.7781 41.864 87.4981 41.864C88.3941 41.864 89.0741 41.68 89.5381 41.312C90.0021 40.944 90.2341 40.456 90.2341 39.848C90.2341 39.192 90.0021 38.72 89.5381 38.432C89.0901 38.144 88.5141 37.848 87.8101 37.544L85.6501 36.608C85.1381 36.384 84.6341 36.096 84.1381 35.744C83.6581 35.392 83.2581 34.944 82.9381 34.4C82.6341 33.856 82.4821 33.2 82.4821 32.432C82.4821 31.6 82.7061 30.856 83.1541 30.2C83.6181 29.528 84.2421 29 85.0261 28.616C85.8261 28.216 86.7381 28.016 87.7621 28.016C88.6741 28.016 89.5541 28.2 90.4021 28.568C91.2501 28.92 91.9781 29.4 92.5861 30.008L91.1701 31.784C90.6741 31.368 90.1461 31.04 89.5861 30.8C89.0421 30.56 88.4341 30.44 87.7621 30.44C87.0261 30.44 86.4261 30.608 85.9621 30.944C85.5141 31.264 85.2901 31.712 85.2901 32.288C85.2901 32.688 85.4021 33.024 85.6261 33.296C85.8661 33.552 86.1781 33.776 86.5621 33.968C86.9461 34.144 87.3541 34.32 87.7861 34.496L89.9221 35.384C90.8501 35.784 91.6101 36.312 92.2021 36.968C92.7941 37.608 93.0901 38.496 93.0901 39.632C93.0901 40.48 92.8661 41.256 92.4181 41.96C91.9701 42.664 91.3221 43.232 90.4741 43.664C89.6421 44.08 88.6341 44.288 87.4501 44.288ZM96.9042 44V28.304H99.7602L104.656 37.136L106.264 40.472H106.36C106.296 39.672 106.216 38.8 106.12 37.856C106.04 36.912 106 36 106 35.12V28.304H108.664V44H105.808L100.912 35.168L99.3042 31.832H99.2082C99.2722 32.664 99.3442 33.536 99.4242 34.448C99.5202 35.36 99.5682 36.256 99.5682 37.136V44H96.9042ZM122.595 35.648L122.043 37.568H126.051L125.499 35.648C125.243 34.816 124.995 33.96 124.755 33.08C124.531 32.2 124.307 31.328 124.083 30.464H123.987C123.779 31.344 123.555 32.224 123.315 33.104C123.091 33.968 122.851 34.816 122.595 35.648ZM117.339 44L122.451 28.304H125.715L130.827 44H127.899L126.675 39.752H121.395L120.171 44H117.339ZM137.61 44.288C136.138 44.288 134.962 43.744 134.082 42.656C133.202 41.568 132.762 40.056 132.762 38.12C132.762 36.84 132.994 35.736 133.458 34.808C133.938 33.88 134.562 33.168 135.33 32.672C136.098 32.176 136.906 31.928 137.754 31.928C138.426 31.928 138.994 32.048 139.458 32.288C139.938 32.512 140.402 32.824 140.85 33.224L140.754 31.328V27.056H143.514V44H141.234L141.042 42.728H140.946C140.514 43.16 140.01 43.528 139.434 43.832C138.858 44.136 138.25 44.288 137.61 44.288ZM138.282 42.008C139.162 42.008 139.986 41.568 140.754 40.688V35.192C140.354 34.824 139.954 34.568 139.554 34.424C139.154 34.28 138.754 34.208 138.354 34.208C137.602 34.208 136.954 34.552 136.41 35.24C135.882 35.912 135.618 36.864 135.618 38.096C135.618 39.36 135.85 40.328 136.314 41C136.778 41.672 137.434 42.008 138.282 42.008ZM150.629 44L146.525 32.216H149.333L151.205 38.336C151.365 38.912 151.525 39.496 151.685 40.088C151.861 40.68 152.029 41.28 152.189 41.888H152.285C152.461 41.28 152.629 40.68 152.789 40.088C152.965 39.496 153.133 38.912 153.293 38.336L155.165 32.216H157.829L153.821 44H150.629ZM160.831 44V32.216H163.591V44H160.831ZM162.223 30.152C161.727 30.152 161.327 30.008 161.023 29.72C160.719 29.432 160.567 29.048 160.567 28.568C160.567 28.104 160.719 27.728 161.023 27.44C161.327 27.152 161.727 27.008 162.223 27.008C162.719 27.008 163.119 27.152 163.423 27.44C163.727 27.728 163.879 28.104 163.879 28.568C163.879 29.048 163.727 29.432 163.423 29.72C163.119 30.008 162.719 30.152 162.223 30.152ZM171.361 44.288C170.561 44.288 169.761 44.136 168.961 43.832C168.161 43.512 167.473 43.12 166.897 42.656L168.193 40.88C168.721 41.28 169.249 41.6 169.777 41.84C170.305 42.08 170.865 42.2 171.457 42.2C172.097 42.2 172.569 42.064 172.873 41.792C173.177 41.52 173.329 41.184 173.329 40.784C173.329 40.448 173.201 40.176 172.945 39.968C172.705 39.744 172.393 39.552 172.009 39.392C171.625 39.216 171.225 39.048 170.809 38.888C170.297 38.696 169.785 38.464 169.273 38.192C168.777 37.904 168.369 37.544 168.049 37.112C167.729 36.664 167.569 36.112 167.569 35.456C167.569 34.416 167.953 33.568 168.721 32.912C169.489 32.256 170.529 31.928 171.841 31.928C172.673 31.928 173.417 32.072 174.073 32.36C174.729 32.648 175.297 32.976 175.777 33.344L174.505 35.024C174.089 34.72 173.665 34.48 173.233 34.304C172.817 34.112 172.377 34.016 171.913 34.016C171.321 34.016 170.881 34.144 170.593 34.4C170.305 34.64 170.161 34.944 170.161 35.312C170.161 35.776 170.401 36.128 170.881 36.368C171.361 36.608 171.921 36.84 172.561 37.064C173.105 37.256 173.633 37.496 174.145 37.784C174.657 38.056 175.081 38.416 175.417 38.864C175.769 39.312 175.945 39.904 175.945 40.64C175.945 41.648 175.553 42.512 174.769 43.232C173.985 43.936 172.849 44.288 171.361 44.288ZM184.193 44.288C183.217 44.288 182.305 44.048 181.457 43.568C180.609 43.072 179.921 42.368 179.393 41.456C178.865 40.528 178.601 39.416 178.601 38.12C178.601 36.808 178.865 35.696 179.393 34.784C179.921 33.856 180.609 33.152 181.457 32.672C182.305 32.176 183.217 31.928 184.193 31.928C185.185 31.928 186.105 32.176 186.953 32.672C187.801 33.152 188.489 33.856 189.017 34.784C189.545 35.696 189.809 36.808 189.809 38.12C189.809 39.416 189.545 40.528 189.017 41.456C188.489 42.368 187.801 43.072 186.953 43.568C186.105 44.048 185.185 44.288 184.193 44.288ZM184.193 42.032C185.057 42.032 185.737 41.672 186.233 40.952C186.729 40.232 186.977 39.288 186.977 38.12C186.977 36.936 186.729 35.984 186.233 35.264C185.737 34.544 185.057 34.184 184.193 34.184C183.329 34.184 182.649 34.544 182.153 35.264C181.673 35.984 181.433 36.936 181.433 38.12C181.433 39.288 181.673 40.232 182.153 40.952C182.649 41.672 183.329 42.032 184.193 42.032ZM193.5 44V32.216H195.78L195.972 34.304H196.068C196.484 33.536 196.988 32.952 197.58 32.552C198.172 32.136 198.78 31.928 199.404 31.928C199.964 31.928 200.412 32.008 200.748 32.168L200.268 34.568C200.06 34.504 199.868 34.456 199.692 34.424C199.516 34.392 199.3 34.376 199.044 34.376C198.58 34.376 198.092 34.56 197.58 34.928C197.068 35.28 196.628 35.904 196.26 36.8V44H193.5ZM204.581 48.848C204.261 48.848 203.981 48.824 203.741 48.776C203.501 48.728 203.269 48.672 203.045 48.608L203.549 46.448C203.661 46.48 203.789 46.512 203.933 46.544C204.093 46.592 204.245 46.616 204.389 46.616C205.013 46.616 205.509 46.424 205.877 46.04C206.261 45.672 206.549 45.192 206.741 44.6L206.957 43.856L202.325 32.216H205.133L207.173 38C207.349 38.512 207.517 39.056 207.677 39.632C207.853 40.192 208.029 40.752 208.205 41.312H208.301C208.445 40.768 208.589 40.216 208.733 39.656C208.893 39.08 209.045 38.528 209.189 38L210.965 32.216H213.629L209.357 44.528C208.861 45.856 208.261 46.904 207.557 47.672C206.853 48.456 205.861 48.848 204.581 48.848Z" fill="white"/>
</svg>
