<svg width="43" height="60" viewBox="0 0 43 60" fill="none" xmlns="http://www.w3.org/2000/svg">
<path fill-rule="evenodd" clip-rule="evenodd" d="M22.5215 0H22.9899C23.2835 0 23.5215 0.329606 23.5215 0.736196V1V27.4857L32.1759 30.6209C32.4357 30.715 32.6332 30.9059 32.7416 31.1387C32.9548 31.3221 33.0898 31.5938 33.0898 31.8971V51.6247C33.0898 52.1769 32.6421 52.6246 32.0898 52.6246H29.3058C28.7535 52.6246 28.3058 52.1769 28.3058 51.6246V34.4405L23.5215 32.7438V59V59.2638C23.5215 59.6704 23.2835 60 22.9899 60H22.5215H19.7374H19.269C18.9754 60 18.7374 59.6704 18.7374 59.2638V59V39.0703H23.5214V32.7437L19.4051 31.2838C19.058 31.1607 18.8111 30.8591 18.7526 30.504L18.7374 30.4989V0.999999V0.736195C18.7374 0.329605 18.9754 0 19.269 0H19.7374H22.5215ZM13.4219 7.37522H12.9534H10.1694H9.70094C9.40736 7.37522 9.16937 7.62379 9.16937 7.93042V8.37522V29.3277L4.38538 29.7056V14.7544V14.1507C4.38538 13.9318 4.16723 13.7544 3.89812 13.7544H3.38538H1H0.487265C0.218156 13.7544 0 13.9318 0 14.1507V14.7544V45.0468V45.6506C0 45.8694 0.218156 46.0468 0.487265 46.0468H1H3.38538H3.89812C4.16723 46.0468 4.38538 45.8694 4.38538 45.6506V45.0468V30.4501L9.16937 30.0722V51.6244V52.0692C9.16937 52.3758 9.40736 52.6244 9.70094 52.6244H10.1694H12.9534H13.4219C13.7154 52.6244 13.9534 52.3758 13.9534 52.0692V51.6244V8.37522V7.93043C13.9534 7.62379 13.7154 7.37522 13.4219 7.37522ZM29.3058 11.5608C28.7535 11.5608 28.3058 12.0086 28.3058 12.5608V25.511C28.3058 26.0633 28.7535 26.511 29.3058 26.511H32.0898C32.6421 26.511 33.0898 26.0633 33.0898 25.511V12.3582L37.8738 14.2377V45.0468C37.8738 45.5991 38.3216 46.0468 38.8738 46.0468H41.6579C42.2102 46.0468 42.6579 45.5991 42.6579 45.0468V14.7544C42.6579 14.2021 42.2102 13.7544 41.6579 13.7544H38.6711V13.7535L33.0898 11.5608H33.0897H29.3058Z" fill="#FAF9FD"/>
</svg>
