<svg width="129" height="126" viewBox="0 0 129 126" fill="none" xmlns="http://www.w3.org/2000/svg">
<path d="M6.39863 110.368C6.39863 110.208 6.47329 110.128 6.62262 110.128H14.0786C14.2066 110.128 14.2706 110.197 14.2706 110.336L14.2546 111.344C14.2546 111.504 14.1746 111.584 14.0146 111.584H8.57463C8.41463 111.584 8.33463 111.653 8.33463 111.792V115.088C8.33463 115.227 8.40396 115.296 8.54263 115.296H12.4466C12.5853 115.296 12.6546 115.36 12.6546 115.488V116.56C12.6546 116.613 12.6386 116.656 12.6066 116.688C12.5853 116.72 12.532 116.736 12.4466 116.736H8.52663C8.39863 116.736 8.33463 116.795 8.33463 116.912V120.368C8.33463 120.485 8.38796 120.544 8.49463 120.544H14.2386C14.388 120.544 14.4626 120.608 14.4626 120.736V121.792C14.4626 121.856 14.4466 121.909 14.4146 121.952C14.3826 121.984 14.324 122 14.2386 122H6.67062C6.48929 122 6.39863 121.915 6.39863 121.744V110.368ZM18.1705 110.368C18.1705 110.208 18.2452 110.128 18.3945 110.128H19.8985C20.0372 110.128 20.1065 110.208 20.1065 110.368V120.368C20.1065 120.485 20.1598 120.544 20.2665 120.544H25.6745C25.8238 120.544 25.8985 120.608 25.8985 120.736V121.792C25.8985 121.856 25.8772 121.909 25.8345 121.952C25.8025 121.984 25.7492 122 25.6745 122H18.4425C18.3358 122 18.2612 121.979 18.2185 121.936C18.1865 121.893 18.1705 121.829 18.1705 121.744V110.368ZM29.5361 110.368C29.5361 110.208 29.6108 110.128 29.7601 110.128H37.2161C37.3441 110.128 37.4081 110.197 37.4081 110.336L37.3921 111.344C37.3921 111.504 37.3121 111.584 37.1521 111.584H31.7121C31.5521 111.584 31.4721 111.653 31.4721 111.792V115.088C31.4721 115.227 31.5415 115.296 31.6801 115.296H35.5841C35.7228 115.296 35.7921 115.36 35.7921 115.488V116.56C35.7921 116.613 35.7761 116.656 35.7441 116.688C35.7228 116.72 35.6695 116.736 35.5841 116.736H31.6641C31.5361 116.736 31.4721 116.795 31.4721 116.912V120.368C31.4721 120.485 31.5255 120.544 31.6321 120.544H37.3761C37.5255 120.544 37.6001 120.608 37.6001 120.736V121.792C37.6001 121.856 37.5841 121.909 37.5521 121.952C37.5201 121.984 37.4615 122 37.3761 122H29.8081C29.6268 122 29.5361 121.915 29.5361 121.744V110.368ZM50.492 110.128C50.5773 110.128 50.636 110.155 50.668 110.208C50.7107 110.261 50.716 110.325 50.684 110.4L46.684 121.728C46.6307 121.909 46.4973 122 46.284 122H44.924C44.6893 122 44.5453 121.915 44.492 121.744L40.572 110.416C40.5507 110.331 40.556 110.261 40.588 110.208C40.6307 110.155 40.6893 110.128 40.764 110.128H42.268C42.4067 110.128 42.4973 110.197 42.54 110.336L45.66 119.536C45.7347 119.739 45.8093 119.733 45.884 119.52L48.988 110.336C49.0307 110.197 49.1267 110.128 49.276 110.128H50.492ZM59.3361 110.368C59.3361 110.208 59.4108 110.128 59.5601 110.128H67.0161C67.1441 110.128 67.2081 110.197 67.2081 110.336L67.1921 111.344C67.1921 111.504 67.1121 111.584 66.9521 111.584H61.5121C61.3521 111.584 61.2721 111.653 61.2721 111.792V115.088C61.2721 115.227 61.3415 115.296 61.4801 115.296H65.3841C65.5228 115.296 65.5921 115.36 65.5921 115.488V116.56C65.5921 116.613 65.5761 116.656 65.5441 116.688C65.5228 116.72 65.4695 116.736 65.3841 116.736H61.4641C61.3361 116.736 61.2721 116.795 61.2721 116.912V120.368C61.2721 120.485 61.3255 120.544 61.4321 120.544H67.1761C67.3255 120.544 67.4001 120.608 67.4001 120.736V121.792C67.4001 121.856 67.3841 121.909 67.3521 121.952C67.3201 121.984 67.2615 122 67.1761 122H59.6081C59.4268 122 59.3361 121.915 59.3361 121.744V110.368ZM70.0659 116.096C70.0659 114.795 70.2739 113.691 70.6899 112.784C71.1165 111.867 71.7192 111.168 72.4979 110.688C73.2765 110.208 74.1992 109.968 75.2659 109.968C76.3325 109.968 77.2552 110.208 78.0339 110.688C78.8125 111.168 79.4099 111.867 79.8259 112.784C80.2525 113.691 80.4659 114.795 80.4659 116.096C80.4659 117.333 80.2792 118.368 79.9059 119.2C79.5325 120.032 79.0099 120.699 78.3379 121.2C78.2845 121.232 78.2579 121.275 78.2579 121.328C78.2579 121.445 78.3485 121.595 78.5299 121.776C78.7219 121.957 78.9619 122.117 79.2499 122.256C79.5485 122.405 79.8632 122.507 80.1939 122.56C80.2685 122.571 80.3165 122.592 80.3379 122.624C80.3592 122.667 80.3699 122.704 80.3699 122.736V123.664C80.3699 123.803 80.3325 123.888 80.2579 123.92C80.1832 123.963 80.0605 123.984 79.8899 123.984C79.3565 123.984 78.8179 123.84 78.2739 123.552C77.7405 123.264 77.2285 122.784 76.7379 122.112C76.6845 122.037 76.6045 122.016 76.4979 122.048C76.2952 122.08 76.0925 122.107 75.8899 122.128C75.6872 122.149 75.4792 122.16 75.2659 122.16C74.2099 122.16 73.2872 121.925 72.4979 121.456C71.7192 120.987 71.1165 120.299 70.6899 119.392C70.2739 118.485 70.0659 117.387 70.0659 116.096ZM72.0819 116.128C72.0819 117.717 72.3432 118.885 72.8659 119.632C73.3992 120.368 74.1992 120.736 75.2659 120.736C76.3219 120.736 77.1165 120.368 77.6499 119.632C78.1832 118.885 78.4499 117.712 78.4499 116.112C78.4499 114.523 78.1832 113.339 77.6499 112.56C77.1272 111.771 76.3325 111.376 75.2659 111.376C74.1992 111.376 73.3992 111.771 72.8659 112.56C72.3432 113.339 72.0819 114.528 72.0819 116.128ZM93.1311 117.904C93.1311 118.907 92.9605 119.723 92.6191 120.352C92.2778 120.981 91.7765 121.44 91.1151 121.728C90.4538 122.016 89.6485 122.16 88.6991 122.16C87.6538 122.16 86.8058 121.995 86.1551 121.664C85.5045 121.323 85.0245 120.816 84.7151 120.144C84.4165 119.472 84.2671 118.635 84.2671 117.632V110.384C84.2671 110.213 84.3365 110.128 84.4751 110.128H85.9951C86.1338 110.128 86.2031 110.208 86.2031 110.368V117.968C86.2031 118.907 86.4271 119.6 86.8751 120.048C87.3231 120.496 87.9791 120.72 88.8431 120.72C89.4085 120.72 89.8885 120.624 90.2831 120.432C90.6885 120.24 90.9978 119.936 91.2111 119.52C91.4245 119.104 91.5311 118.571 91.5311 117.92V110.368C91.5311 110.208 91.5951 110.128 91.7231 110.128H92.9391C93.0671 110.128 93.1311 110.203 93.1311 110.352V117.904ZM99.1454 110.128C99.284 110.128 99.3534 110.208 99.3534 110.368V121.696C99.3534 121.813 99.3267 121.893 99.2734 121.936C99.2307 121.979 99.1454 122 99.0174 122H97.7054C97.588 122 97.508 121.984 97.4654 121.952C97.4334 121.909 97.4174 121.84 97.4174 121.744V110.368C97.4174 110.208 97.492 110.128 97.6414 110.128H99.1454ZM102.999 110.352C102.999 110.277 103.015 110.224 103.047 110.192C103.09 110.149 103.154 110.128 103.239 110.128H112.023C112.108 110.128 112.167 110.149 112.199 110.192C112.231 110.224 112.247 110.277 112.247 110.352V111.376C112.247 111.504 112.172 111.568 112.023 111.568H108.855C108.738 111.568 108.679 111.616 108.679 111.712V121.76C108.679 121.92 108.61 122 108.471 122H106.967C106.828 122 106.759 121.925 106.759 121.776V111.744C106.759 111.627 106.7 111.568 106.583 111.568H103.223C103.074 111.568 102.999 111.504 102.999 111.376V110.352ZM124.295 110.128C124.391 110.128 124.449 110.155 124.471 110.208C124.503 110.251 124.497 110.309 124.455 110.384L120.663 116.688C120.609 116.752 120.577 116.827 120.567 116.912C120.556 116.987 120.551 117.12 120.551 117.312V121.68C120.551 121.893 120.433 122 120.199 122H118.903C118.796 122 118.721 121.979 118.679 121.936C118.647 121.893 118.631 121.824 118.631 121.728V117.328C118.631 117.211 118.615 117.12 118.583 117.056C118.561 116.992 118.529 116.923 118.487 116.848L114.647 110.432C114.593 110.347 114.583 110.277 114.615 110.224C114.647 110.16 114.721 110.128 114.839 110.128H116.375C116.492 110.128 116.572 110.144 116.615 110.176C116.657 110.208 116.705 110.267 116.759 110.352L119.543 115.168C119.607 115.285 119.665 115.344 119.719 115.344C119.772 115.344 119.825 115.296 119.879 115.2L122.647 110.352C122.7 110.256 122.748 110.197 122.791 110.176C122.833 110.144 122.908 110.128 123.015 110.128H124.295Z" fill="#FAF9FD"/>
<path d="M87.3314 15.3239L87.6468 0L74.7151 7.93888L77.1991 9.39294L74.6554 13.8598L74.6539 13.8571L61.0353 37.7722L66.1357 46.7288L74.6554 31.7675L79.7545 22.8141L84.8473 13.8699L87.3314 15.3239Z" fill="url(#paint0_linear_703_817)"/>
<path d="M82.3039 27.291L77.2051 36.2449L106.704 88.0462H42.6042L43.9473 85.6877L43.9496 85.689L55.9381 64.6365L50.8377 55.6799L27.3078 97H122L82.3039 27.291Z" fill="url(#paint1_linear_703_817)"/>
<path d="M79.3833 79.0923L48.7905 25.3692L8 97H58.8857L18.1925 97L23.3227 88.0462H23.2964L48.7905 43.2769L69.1857 79.0923H79.3833Z" fill="url(#paint2_linear_703_817)"/>
<defs>
<linearGradient id="paint0_linear_703_817" x1="41.6002" y1="39.7741" x2="41.6002" y2="151" gradientUnits="userSpaceOnUse">
<stop stop-color="#FAF9FD"/>
<stop offset="1" stop-color="#080F2F"/>
</linearGradient>
<linearGradient id="paint1_linear_703_817" x1="41.6002" y1="39.7741" x2="41.6002" y2="151" gradientUnits="userSpaceOnUse">
<stop stop-color="#FAF9FD"/>
<stop offset="1" stop-color="#080F2F"/>
</linearGradient>
<linearGradient id="paint2_linear_703_817" x1="41.6002" y1="39.7741" x2="41.6002" y2="151" gradientUnits="userSpaceOnUse">
<stop stop-color="#FAF9FD"/>
<stop offset="1" stop-color="#080F2F"/>
</linearGradient>
</defs>
</svg>
