<svg width="60" height="50" viewBox="0 0 67 56" fill="none" xmlns="http://www.w3.org/2000/svg">
<path d="M46.1547 9.2997L46.3363 0.597595L38.8908 5.10592L40.321 5.93165L38.8565 8.4683L38.8556 8.46677L31.0147 22.0476L33.9512 27.1339L38.8565 18.6377L41.7923 13.5532L44.7245 8.474L46.1547 9.2997Z" fill="url(#paint0_linear_711_391)"/>
<path d="M43.2601 16.0956L40.3245 21.1803L57.3083 50.5971H20.403L21.1762 49.2578L21.1775 49.2586L28.0799 37.3033L25.1434 32.217L11.596 55.6818H66.1152L43.2601 16.0956Z" fill="url(#paint1_linear_711_391)"/>
<path d="M41.5786 45.5124L23.9647 15.0042L0.479492 55.6818H29.777L6.34785 55.6818L9.30157 50.5971H9.28645L23.9647 25.1736L35.7073 45.5124H41.5786Z" fill="url(#paint2_linear_711_391)"/>
<defs>
<linearGradient id="paint0_linear_711_391" x1="19.8249" y1="23.1845" x2="19.8249" y2="73.6704" gradientUnits="userSpaceOnUse">
<stop stop-color="#FEFEFF"/>
<stop offset="1" stop-color="#181533"/>
</linearGradient>
<linearGradient id="paint1_linear_711_391" x1="19.8249" y1="23.1845" x2="19.8249" y2="73.6704" gradientUnits="userSpaceOnUse">
<stop stop-color="#FEFEFF"/>
<stop offset="1" stop-color="#181533"/>
</linearGradient>
<linearGradient id="paint2_linear_711_391" x1="19.8249" y1="23.1845" x2="19.8249" y2="73.6704" gradientUnits="userSpaceOnUse">
<stop stop-color="#FEFEFF"/>
<stop offset="1" stop-color="#181533"/>
</linearGradient>
</defs>
</svg>
