<svg width="140" height="141" viewBox="0 0 140 141" fill="none" xmlns="http://www.w3.org/2000/svg">
<path d="M13.6197 128.587C13.6197 128.446 13.6856 128.375 13.8175 128.375H20.4001C20.5131 128.375 20.5696 128.436 20.5696 128.559L20.5555 129.449C20.5555 129.59 20.4848 129.661 20.3436 129.661H15.5408C15.3996 129.661 15.3289 129.722 15.3289 129.844V132.754C15.3289 132.877 15.3901 132.938 15.5126 132.938H18.9593C19.0817 132.938 19.1429 132.994 19.1429 133.107V134.054C19.1429 134.101 19.1288 134.138 19.1005 134.167C19.0817 134.195 19.0346 134.209 18.9593 134.209H15.4984C15.3854 134.209 15.3289 134.261 15.3289 134.365V137.416C15.3289 137.519 15.376 137.571 15.4702 137.571H20.5413C20.6732 137.571 20.7391 137.628 20.7391 137.741V138.673C20.7391 138.729 20.725 138.776 20.6967 138.814C20.6685 138.842 20.6167 138.856 20.5413 138.856H13.8599C13.6998 138.856 13.6197 138.781 13.6197 138.63V128.587Z" fill="#FAF9FD"/>
<path d="M24.0126 128.587C24.0126 128.446 24.0786 128.375 24.2104 128.375H25.5382C25.6606 128.375 25.7219 128.446 25.7219 128.587V137.416C25.7219 137.519 25.7689 137.571 25.8631 137.571H30.6376C30.7695 137.571 30.8354 137.628 30.8354 137.741V138.673C30.8354 138.729 30.8166 138.776 30.7789 138.814C30.7506 138.842 30.7035 138.856 30.6376 138.856H24.2528C24.1586 138.856 24.0927 138.838 24.055 138.8C24.0268 138.762 24.0126 138.706 24.0126 138.63V128.587Z" fill="#FAF9FD"/>
<path d="M34.0469 128.587C34.0469 128.446 34.1128 128.375 34.2447 128.375H40.8273C40.9403 128.375 40.9968 128.436 40.9968 128.559L40.9827 129.449C40.9827 129.59 40.912 129.661 40.7708 129.661H35.968C35.8267 129.661 35.7561 129.722 35.7561 129.844V132.754C35.7561 132.877 35.8173 132.938 35.9398 132.938H39.3864C39.5089 132.938 39.5701 132.994 39.5701 133.107V134.054C39.5701 134.101 39.556 134.138 39.5277 134.167C39.5089 134.195 39.4618 134.209 39.3864 134.209H35.9256C35.8126 134.209 35.7561 134.261 35.7561 134.365V137.416C35.7561 137.519 35.8032 137.571 35.8974 137.571H40.9685C41.1004 137.571 41.1663 137.628 41.1663 137.741V138.673C41.1663 138.729 41.1522 138.776 41.1239 138.814C41.0957 138.842 41.0439 138.856 40.9685 138.856H34.287C34.1269 138.856 34.0469 138.781 34.0469 138.63V128.587Z" fill="#FAF9FD"/>
<path d="M52.548 128.375C52.6234 128.375 52.6752 128.399 52.7034 128.446C52.7411 128.493 52.7458 128.549 52.7175 128.615L49.1861 138.616C49.139 138.776 49.0213 138.856 48.8329 138.856H47.6323C47.4251 138.856 47.2979 138.781 47.2509 138.63L43.79 128.629C43.7712 128.554 43.7759 128.493 43.8042 128.446C43.8418 128.399 43.8936 128.375 43.9595 128.375H45.2874C45.4098 128.375 45.4898 128.436 45.5275 128.559L48.282 136.681C48.348 136.86 48.4139 136.855 48.4798 136.667L51.2202 128.559C51.2579 128.436 51.3426 128.375 51.4745 128.375H52.548Z" fill="#FAF9FD"/>
<path d="M60.3561 128.587C60.3561 128.446 60.4221 128.375 60.5539 128.375H67.1365C67.2495 128.375 67.306 128.436 67.306 128.559L67.2919 129.449C67.2919 129.59 67.2213 129.661 67.08 129.661H62.2772C62.136 129.661 62.0654 129.722 62.0654 129.844V132.754C62.0654 132.877 62.1266 132.938 62.249 132.938H65.6957C65.8181 132.938 65.8793 132.994 65.8793 133.107V134.054C65.8793 134.101 65.8652 134.138 65.8369 134.167C65.8181 134.195 65.771 134.209 65.6957 134.209H62.2349C62.1219 134.209 62.0654 134.261 62.0654 134.365V137.416C62.0654 137.519 62.1124 137.571 62.2066 137.571H67.2778C67.4096 137.571 67.4755 137.628 67.4755 137.741V138.673C67.4755 138.729 67.4614 138.776 67.4332 138.814C67.4049 138.842 67.3531 138.856 67.2778 138.856H60.5963C60.4362 138.856 60.3561 138.781 60.3561 138.63V128.587Z" fill="#FAF9FD"/>
<path d="M69.829 133.644C69.829 132.495 70.0127 131.521 70.3799 130.72C70.7566 129.91 71.2887 129.293 71.9761 128.87C72.6636 128.446 73.4782 128.234 74.4199 128.234C75.3616 128.234 76.1762 128.446 76.8636 128.87C77.5511 129.293 78.0785 129.91 78.4457 130.72C78.8224 131.521 79.0108 132.495 79.0108 133.644C79.0108 134.736 78.846 135.65 78.5164 136.384C78.1868 137.119 77.7253 137.708 77.132 138.15C77.085 138.178 77.0614 138.216 77.0614 138.263C77.0614 138.367 77.1415 138.499 77.3015 138.659C77.4711 138.819 77.683 138.96 77.9372 139.083C78.2009 139.214 78.4787 139.304 78.7706 139.351C78.8366 139.36 78.8789 139.379 78.8978 139.407C78.9166 139.445 78.926 139.478 78.926 139.506V140.326C78.926 140.448 78.8931 140.523 78.8271 140.552C78.7612 140.589 78.6529 140.608 78.5022 140.608C78.0314 140.608 77.5558 140.481 77.0755 140.227C76.6047 139.972 76.1527 139.549 75.7195 138.955C75.6724 138.889 75.6018 138.871 75.5076 138.899C75.3287 138.927 75.1497 138.951 74.9708 138.969C74.7919 138.988 74.6082 138.998 74.4199 138.998C73.4876 138.998 72.673 138.791 71.9761 138.376C71.2887 137.962 70.7566 137.354 70.3799 136.554C70.0127 135.754 69.829 134.784 69.829 133.644ZM71.6089 133.672C71.6089 135.075 71.8396 136.107 72.301 136.766C72.7719 137.416 73.4782 137.741 74.4199 137.741C75.3522 137.741 76.0538 137.416 76.5246 136.766C76.9955 136.107 77.2309 135.071 77.2309 133.658C77.2309 132.255 76.9955 131.21 76.5246 130.522C76.0632 129.825 75.3616 129.477 74.4199 129.477C73.4782 129.477 72.7719 129.825 72.301 130.522C71.8396 131.21 71.6089 132.26 71.6089 133.672Z" fill="#FAF9FD"/>
<path d="M90.1924 135.24C90.1924 136.126 90.0417 136.846 89.7404 137.402C89.439 137.957 88.9964 138.362 88.4126 138.616C87.8287 138.871 87.1177 138.998 86.2796 138.998C85.3567 138.998 84.608 138.852 84.0336 138.56C83.4591 138.258 83.0354 137.811 82.7623 137.218C82.4986 136.625 82.3667 135.885 82.3667 135V128.601C82.3667 128.451 82.428 128.375 82.5504 128.375H83.8923C84.0148 128.375 84.076 128.446 84.076 128.587V135.297C84.076 136.126 84.2737 136.738 84.6693 137.133C85.0648 137.529 85.6439 137.726 86.4067 137.726C86.9058 137.726 87.3296 137.642 87.678 137.472C88.0359 137.303 88.309 137.034 88.4973 136.667C88.6857 136.3 88.7798 135.829 88.7798 135.254V128.587C88.7798 128.446 88.8363 128.375 88.9494 128.375H90.0229C90.1359 128.375 90.1924 128.441 90.1924 128.573V135.24Z" fill="#FAF9FD"/>
<path d="M95.5022 128.375C95.6246 128.375 95.6858 128.446 95.6858 128.587V138.588C95.6858 138.692 95.6623 138.762 95.6152 138.8C95.5775 138.838 95.5022 138.856 95.3892 138.856H94.2308C94.1273 138.856 94.0566 138.842 94.019 138.814C93.9907 138.776 93.9766 138.715 93.9766 138.63V128.587C93.9766 128.446 94.0425 128.375 94.1743 128.375H95.5022Z" fill="#FAF9FD"/>
<path d="M98.9044 128.573C98.9044 128.507 98.9185 128.46 98.9468 128.432C98.9844 128.394 99.0409 128.375 99.1163 128.375H106.871C106.947 128.375 106.998 128.394 107.027 128.432C107.055 128.46 107.069 128.507 107.069 128.573V129.477C107.069 129.59 107.003 129.646 106.871 129.646H104.074C103.971 129.646 103.919 129.689 103.919 129.774V138.645C103.919 138.786 103.858 138.856 103.735 138.856H102.408C102.285 138.856 102.224 138.791 102.224 138.659V129.802C102.224 129.698 102.172 129.646 102.069 129.646H99.1021C98.9703 129.646 98.9044 129.59 98.9044 129.477V128.573Z" fill="#FAF9FD"/>
<path d="M117.705 128.375C117.79 128.375 117.842 128.399 117.861 128.446C117.889 128.483 117.884 128.535 117.847 128.601L114.499 134.167C114.452 134.223 114.424 134.289 114.414 134.365C114.405 134.43 114.4 134.548 114.4 134.718V138.574C114.4 138.762 114.296 138.856 114.089 138.856H112.945C112.851 138.856 112.785 138.838 112.747 138.8C112.719 138.762 112.705 138.701 112.705 138.616V134.732C112.705 134.628 112.691 134.548 112.663 134.492C112.644 134.435 112.615 134.374 112.578 134.308L109.188 128.644C109.141 128.568 109.131 128.507 109.159 128.46C109.188 128.403 109.254 128.375 109.357 128.375H110.713C110.817 128.375 110.887 128.389 110.925 128.418C110.963 128.446 111.005 128.498 111.052 128.573L113.51 132.825C113.567 132.928 113.618 132.98 113.665 132.98C113.713 132.98 113.76 132.938 113.807 132.853L116.25 128.573C116.298 128.488 116.34 128.436 116.378 128.418C116.415 128.389 116.481 128.375 116.575 128.375H117.705Z" fill="#FAF9FD"/>
<path d="M97.1451 19.4272L97.5298 0.856201L81.7573 10.4773L84.7871 12.2395L81.6846 17.653L81.6827 17.6497L65.0725 46.6324L71.2933 57.4868L94.1154 17.6651L97.1451 19.4272Z" fill="url(#paint0_linear_711_496)"/>
<path d="M91.0132 33.9302L84.7943 44.7814L120.773 107.559H42.5926L44.2306 104.701L44.2335 104.703L58.8555 79.1892L52.6347 68.3347L23.9359 118.411H139.429L91.0132 33.9302Z" fill="url(#paint1_linear_711_496)"/>
<path d="M87.4511 96.7082L50.1378 31.6012L0.386719 118.411H62.4506L12.8182 118.411L19.0754 107.559H19.0434L50.1378 53.3035L75.0133 96.7082H87.4511Z" fill="url(#paint2_linear_711_496)"/>
<defs>
<linearGradient id="paint0_linear_711_496" x1="41.368" y1="49.0585" x2="41.368" y2="151.816" gradientUnits="userSpaceOnUse">
<stop stop-color="#FAF9FD"/>
<stop offset="1" stop-color="#000413"/>
</linearGradient>
<linearGradient id="paint1_linear_711_496" x1="41.368" y1="49.0585" x2="41.368" y2="151.816" gradientUnits="userSpaceOnUse">
<stop stop-color="#FAF9FD"/>
<stop offset="1" stop-color="#000413"/>
</linearGradient>
<linearGradient id="paint2_linear_711_496" x1="41.368" y1="49.0585" x2="41.368" y2="151.816" gradientUnits="userSpaceOnUse">
<stop stop-color="#FAF9FD"/>
<stop offset="1" stop-color="#000413"/>
</linearGradient>
</defs>
</svg>
